<svg width="19" height="17" viewBox="0 0 19 17" fill="none" xmlns="http://www.w3.org/2000/svg">
<g clip-path="url(#clip0_2066_69)">
<path d="M0.750014 3.66982e-09H17.417C17.56 -1.41383e-05 17.7 0.0408448 17.8205 0.117762C17.9411 0.194679 18.0371 0.304448 18.0973 0.434134C18.1575 0.56382 18.1794 0.708017 18.1604 0.849732C18.1414 0.991447 18.0823 1.12477 17.99 1.234L11.5 8.908V15.75C11.5 15.8778 11.4673 16.0035 11.4051 16.1151C11.3429 16.2267 11.2532 16.3206 11.1445 16.3878C11.0358 16.4551 10.9117 16.4934 10.7841 16.4992C10.6564 16.505 10.5294 16.4781 10.415 16.421L7.08101 14.75C6.95633 14.6878 6.85146 14.592 6.77815 14.4735C6.70485 14.355 6.66602 14.2184 6.66601 14.079V8.908L0.177014 1.234C0.0847408 1.12477 0.0256135 0.991447 0.00659996 0.849732C-0.0124136 0.708017 0.00947898 0.56382 0.0696977 0.434134C0.129916 0.304448 0.225952 0.194679 0.346485 0.117762C0.467019 0.0408448 0.607029 -1.41383e-05 0.750014 3.66982e-09ZM15.8 1.5H2.36601L7.98901 8.15C8.10333 8.28536 8.16603 8.45682 8.16601 8.634V13.62L9.99901 14.537V8.637C9.99899 8.45982 10.0617 8.28836 10.176 8.153L15.8 1.5Z" fill="white"/>
</g>
<defs>
<clipPath id="clip0_2066_69">
<rect width="18.167" height="16.5" fill="white"/>
</clipPath>
</defs>
</svg>
